<svg width="24" height="24" viewBox="0 0 24 24" fill="none" xmlns="http://www.w3.org/2000/svg">
<path d="M6.43431 16.4343C6.1219 16.7467 6.1219 17.2533 6.43431 17.5657C6.74673 17.8781 7.25327 17.8781 7.56569 17.5657L7 17L6.43431 16.4343ZM12.5657 12.5657C12.8781 12.2533 12.8781 11.7467 12.5657 11.4343C12.2533 11.1219 11.7467 11.1219 11.4343 11.4343L12 12L12.5657 12.5657ZM11.4343 11.4343C11.1219 11.7467 11.1219 12.2533 11.4343 12.5657C11.7467 12.8781 12.2533 12.8781 12.5657 12.5657L12 12L11.4343 11.4343ZM17.5657 7.56569C17.8781 7.25327 17.8781 6.74673 17.5657 6.43431C17.2533 6.1219 16.7467 6.1219 16.4343 6.43431L17 7L17.5657 7.56569ZM12.5657 11.4343C12.2533 11.1219 11.7467 11.1219 11.4343 11.4343C11.1219 11.7467 11.1219 12.2533 11.4343 12.5657L12 12L12.5657 11.4343ZM16.4343 17.5657C16.7467 17.8781 17.2533 17.8781 17.5657 17.5657C17.8781 17.2533 17.8781 16.7467 17.5657 16.4343L17 17L16.4343 17.5657ZM11.4343 12.5657C11.7467 12.8781 12.2533 12.8781 12.5657 12.5657C12.8781 12.2533 12.8781 11.7467 12.5657 11.4343L12 12L11.4343 12.5657ZM7.56569 6.43431C7.25327 6.1219 6.74673 6.1219 6.43431 6.43431C6.1219 6.74673 6.1219 7.25327 6.43431 7.56569L7 7L7.56569 6.43431ZM7 17L7.56569 17.5657L12.5657 12.5657L12 12L11.4343 11.4343L6.43431 16.4343L7 17ZM12 12L12.5657 12.5657L17.5657 7.56569L17 7L16.4343 6.43431L11.4343 11.4343L12 12ZM12 12L11.4343 12.5657L16.4343 17.5657L17 17L17.5657 16.4343L12.5657 11.4343L12 12ZM12 12L12.5657 11.4343L7.56569 6.43431L7 7L6.43431 7.56569L11.4343 12.5657L12 12Z" fill="#6B7583"/>
</svg>
