<svg width="18" height="18" viewBox="0 0 18 18" fill="none" xmlns="http://www.w3.org/2000/svg">
<path d="M9 3.39453L9.00001 2.74453H9V3.39453ZM14.6055 9L15.2555 9.00001V9H14.6055ZM9 14.6055V15.2555H9.00001L9 14.6055ZM4.38672 14.3584L4.60328 14.9713L4.60343 14.9712L4.38672 14.3584ZM3.52832 13.5L4.14118 13.7166L4.14124 13.7164L3.52832 13.5ZM3.39453 9H2.74453V9.00001L3.39453 9ZM4.0121 11.5564L4.5902 11.2593L4.0121 11.5564ZM5.80132 13.8582L6.01803 14.471L5.80132 13.8582ZM9 3.39453L8.99999 4.04453C11.7367 4.04459 13.9555 6.2633 13.9555 9H14.6055H15.2555C15.2555 5.5453 12.4547 2.74461 9.00001 2.74453L9 3.39453ZM14.6055 9L13.9555 8.99999C13.9554 11.7366 11.7366 13.9554 8.99999 13.9555L9 14.6055L9.00001 15.2555C12.4546 15.2554 15.2554 12.4546 15.2555 9.00001L14.6055 9ZM9 14.6055V13.9555C8.12902 13.9555 7.31229 13.7302 6.60179 13.3361L6.28649 13.9045L5.97118 14.4729C6.86879 14.9708 7.90179 15.2555 9 15.2555V14.6055ZM5.80132 13.8582L5.58461 13.2453L4.17001 13.7456L4.38672 14.3584L4.60343 14.9712L6.01803 14.471L5.80132 13.8582ZM4.38672 14.3584L4.17016 13.7455C4.1632 13.748 4.15985 13.7481 4.1595 13.7481C4.15898 13.7482 4.15885 13.7481 4.15856 13.7481C4.15746 13.7478 4.15243 13.746 4.14656 13.7402C4.1407 13.7343 4.13893 13.7293 4.13865 13.7282C4.13858 13.7279 4.13855 13.7277 4.13858 13.7272C4.13859 13.7269 4.13873 13.7235 4.14118 13.7166L3.52832 13.5L2.91546 13.2834C2.54502 14.3318 3.55494 15.3417 4.60328 14.9713L4.38672 14.3584ZM3.52832 13.5L4.14124 13.7164L4.66213 12.241L4.04921 12.0246L3.43628 11.8082L2.9154 13.2836L3.52832 13.5ZM4.0121 11.5564L4.5902 11.2593C4.24202 10.5819 4.04455 9.81485 4.04453 8.99999L3.39453 9L2.74453 9.00001C2.74455 10.0276 2.99412 10.9978 3.43399 11.8536L4.0121 11.5564ZM3.39453 9H4.04453C4.04453 6.26324 6.26324 4.04453 9 4.04453V3.39453V2.74453C5.54527 2.74453 2.74453 5.54527 2.74453 9H3.39453ZM4.04921 12.0246L4.66213 12.241C4.78116 11.9038 4.73921 11.5492 4.5902 11.2593L4.0121 11.5564L3.43399 11.8536C3.43362 11.8528 3.43193 11.8493 3.43131 11.842C3.43066 11.8343 3.4313 11.8223 3.43628 11.8082L4.04921 12.0246ZM6.28649 13.9045L6.60179 13.3361C6.30523 13.1716 5.93566 13.1212 5.58461 13.2453L5.80132 13.8582L6.01803 14.471C6.00337 14.4761 5.99084 14.4767 5.98288 14.4759C5.97541 14.4751 5.97188 14.4733 5.97118 14.4729L6.28649 13.9045Z" fill="#8B95A1"/>
</svg>
