<svg width="14" height="14" viewBox="0 0 14 14" fill="none" xmlns="http://www.w3.org/2000/svg">
<path fill-rule="evenodd" clip-rule="evenodd" d="M8.19224 2.52899C8.64768 2.07286 9.38609 2.0723 9.84153 2.52774L11.2957 3.98195C11.7473 4.4335 11.7517 5.16478 11.3056 5.62245L10.3379 6.61535L7.22263 3.50006L8.19224 2.52899ZM6.60415 4.11948L9.72691 7.24224L5.92042 11.1477C5.59089 11.4858 5.13897 11.6765 4.66719 11.6765L3.06148 11.6764C2.56426 11.6764 2.16738 11.2621 2.18829 10.7649L2.25723 9.12606C2.27567 8.6876 2.45798 8.27194 2.76805 7.9614L6.60415 4.11948ZM7.95808 11.6348C7.95808 11.8766 8.15388 12.0725 8.39541 12.0725H11.9663C12.2079 12.0725 12.4037 11.8766 12.4037 11.6348C12.4037 11.3931 12.2079 11.1972 11.9663 11.1972H8.39541C8.15388 11.1972 7.95808 11.3931 7.95808 11.6348Z" fill="#6B7583"/>
</svg>
