<svg width="205" height="61" viewBox="0 0 205 61" fill="none" xmlns="http://www.w3.org/2000/svg">
<mask id="mask0_2812_21347" style="mask-type:alpha" maskUnits="userSpaceOnUse" x="13" y="3" width="45" height="28">
<mask id="path-1-inside-1_2812_21347" fill="white">
<path d="M56.8168 30.2858C57.1093 30.2855 57.3467 30.0481 57.3407 29.7557C57.239 24.806 55.7797 19.9754 53.1174 15.7933C50.3602 11.4622 46.4267 8.00578 41.7771 5.82835C37.1275 3.65092 31.9539 2.84251 26.8617 3.4977C21.9446 4.13034 17.2997 6.10234 13.4324 9.19339C13.204 9.376 13.1737 9.71034 13.3607 9.93518L23.589 22.2303C23.776 22.4551 24.1091 22.4845 24.3435 22.3097C25.7166 21.2855 27.3329 20.6301 29.0378 20.4107C30.918 20.1688 32.8283 20.4673 34.5451 21.2713C36.262 22.0753 37.7144 23.3516 38.7324 24.9508C39.6555 26.4008 40.1869 28.062 40.2794 29.7725C40.2952 30.0645 40.531 30.3015 40.8235 30.3013L56.8168 30.2858Z"/>
</mask>
<path d="M56.8168 30.2858C57.1093 30.2855 57.3467 30.0481 57.3407 29.7557C57.239 24.806 55.7797 19.9754 53.1174 15.7933C50.3602 11.4622 46.4267 8.00578 41.7771 5.82835C37.1275 3.65092 31.9539 2.84251 26.8617 3.4977C21.9446 4.13034 17.2997 6.10234 13.4324 9.19339C13.204 9.376 13.1737 9.71034 13.3607 9.93518L23.589 22.2303C23.776 22.4551 24.1091 22.4845 24.3435 22.3097C25.7166 21.2855 27.3329 20.6301 29.0378 20.4107C30.918 20.1688 32.8283 20.4673 34.5451 21.2713C36.262 22.0753 37.7144 23.3516 38.7324 24.9508C39.6555 26.4008 40.1869 28.062 40.2794 29.7725C40.2952 30.0645 40.531 30.3015 40.8235 30.3013L56.8168 30.2858Z" stroke="url(#paint0_linear_2812_21347)" stroke-width="34.0712" mask="url(#path-1-inside-1_2812_21347)"/>
</mask>
<g mask="url(#mask0_2812_21347)">
<mask id="path-2-inside-2_2812_21347" fill="white">
<path d="M56.8168 30.2858C57.1093 30.2855 57.3467 30.0481 57.3407 29.7557C57.239 24.806 55.7797 19.9754 53.1174 15.7933C50.3602 11.4622 46.4267 8.00578 41.7771 5.82835C37.1275 3.65092 31.9539 2.84251 26.8617 3.4977C21.9446 4.13034 17.2997 6.10234 13.4324 9.19339C13.204 9.376 13.1737 9.71034 13.3607 9.93518L23.589 22.2303C23.776 22.4551 24.1091 22.4845 24.3435 22.3097C25.7166 21.2855 27.3329 20.6301 29.0378 20.4107C30.918 20.1688 32.8283 20.4673 34.5451 21.2713C36.262 22.0753 37.7144 23.3516 38.7324 24.9508C39.6555 26.4008 40.1869 28.062 40.2794 29.7725C40.2952 30.0645 40.531 30.3015 40.8235 30.3013L56.8168 30.2858Z"/>
</mask>
<path d="M56.8168 30.2858C57.1093 30.2855 57.3467 30.0481 57.3407 29.7557C57.239 24.806 55.7797 19.9754 53.1174 15.7933C50.3602 11.4622 46.4267 8.00578 41.7771 5.82835C37.1275 3.65092 31.9539 2.84251 26.8617 3.4977C21.9446 4.13034 17.2997 6.10234 13.4324 9.19339C13.204 9.376 13.1737 9.71034 13.3607 9.93518L23.589 22.2303C23.776 22.4551 24.1091 22.4845 24.3435 22.3097C25.7166 21.2855 27.3329 20.6301 29.0378 20.4107C30.918 20.1688 32.8283 20.4673 34.5451 21.2713C36.262 22.0753 37.7144 23.3516 38.7324 24.9508C39.6555 26.4008 40.1869 28.062 40.2794 29.7725C40.2952 30.0645 40.531 30.3015 40.8235 30.3013L56.8168 30.2858Z" stroke="url(#paint1_linear_2812_21347)" stroke-width="34.0712" mask="url(#path-2-inside-2_2812_21347)"/>
<mask id="path-3-inside-3_2812_21347" fill="white">
<path d="M56.8168 30.2858C57.1093 30.2855 57.3467 30.0481 57.3407 29.7557C57.239 24.806 55.7797 19.9754 53.1174 15.7933C50.3602 11.4622 46.4267 8.00578 41.7771 5.82835C37.1275 3.65092 31.9539 2.84251 26.8617 3.4977C21.9446 4.13034 17.2997 6.10234 13.4324 9.19339C13.204 9.376 13.1737 9.71034 13.3607 9.93518L23.589 22.2303C23.776 22.4551 24.1091 22.4845 24.3435 22.3097C25.7166 21.2855 27.3329 20.6301 29.0378 20.4107C30.918 20.1688 32.8283 20.4673 34.5451 21.2713C36.262 22.0753 37.7144 23.3516 38.7324 24.9508C39.6555 26.4008 40.1869 28.062 40.2794 29.7725C40.2952 30.0645 40.531 30.3015 40.8235 30.3013L56.8168 30.2858Z"/>
</mask>
<path d="M56.8168 30.2858C57.1093 30.2855 57.3467 30.0481 57.3407 29.7557C57.239 24.806 55.7797 19.9754 53.1174 15.7933C50.3602 11.4622 46.4267 8.00578 41.7771 5.82835C37.1275 3.65092 31.9539 2.84251 26.8617 3.4977C21.9446 4.13034 17.2997 6.10234 13.4324 9.19339C13.204 9.376 13.1737 9.71034 13.3607 9.93518L23.589 22.2303C23.776 22.4551 24.1091 22.4845 24.3435 22.3097C25.7166 21.2855 27.3329 20.6301 29.0378 20.4107C30.918 20.1688 32.8283 20.4673 34.5451 21.2713C36.262 22.0753 37.7144 23.3516 38.7324 24.9508C39.6555 26.4008 40.1869 28.062 40.2794 29.7725C40.2952 30.0645 40.531 30.3015 40.8235 30.3013L56.8168 30.2858Z" stroke="url(#paint2_linear_2812_21347)" stroke-width="34.0712" mask="url(#path-3-inside-3_2812_21347)"/>
<rect x="18.4502" y="14.4967" width="42.1725" height="42.1725" rx="21.0862" fill="url(#paint3_linear_2812_21347)" fill-opacity="0.2"/>
</g>
<path d="M185.341 12.5243C189.64 12.5243 193.469 14.178 196.004 16.9364V13.2167H204.197V47.4061H196.004V43.369C193.459 46.3387 189.525 48.0995 185.226 48.0995C176.98 48.0994 168.392 41.5491 168.392 30.3407C168.392 19.018 176.689 12.5245 185.341 12.5243ZM186.496 20.0243C180.833 20.0245 176.47 24.4959 176.47 30.2245C176.47 36.0132 180.835 40.5407 186.496 40.5409C192.211 40.5409 196.408 35.9601 196.408 30.2245C196.408 24.549 192.213 20.0243 186.496 20.0243Z" fill="#191F28" stroke="#191F28" stroke-width="0.395367"/>
<path d="M148.464 12.5243C158.278 12.5243 166.165 20.3538 166.165 30.3407C166.165 40.1537 158.279 48.0995 148.464 48.0995C138.591 48.0993 130.764 40.1531 130.764 30.3407C130.764 20.3544 138.591 12.5245 148.464 12.5243ZM148.464 20.2557C142.98 20.2559 138.842 24.7205 138.842 30.3407C138.842 35.8452 142.98 40.3669 148.464 40.3671C153.891 40.3671 158.087 35.8446 158.087 30.3407C158.087 24.7212 153.891 20.2557 148.464 20.2557Z" fill="#191F28" stroke="#191F28" stroke-width="0.395367"/>
<path d="M113.86 12.5243C118.491 12.5244 121.986 13.8649 124.322 16.3485C126.657 18.8301 127.806 22.4238 127.806 26.8749V47.4061H119.438V27.5096C119.438 25.0856 118.826 23.1305 117.64 21.7841C116.457 20.4417 114.681 19.6776 112.3 19.6776C110.238 19.6777 108.431 20.3832 107.139 21.8016C105.845 23.2216 105.046 25.3786 105.046 28.3182V47.4061H96.7363V27.2792C96.7363 24.8835 96.1374 22.9867 94.9883 21.6913C93.8424 20.3996 92.1255 19.6776 89.8291 19.6776C87.6807 19.6776 85.8309 20.412 84.5166 21.8661C83.2007 23.3222 82.4014 25.5228 82.4014 28.4921V47.4061H74.208V13.2167H82.3438V16.7762C84.5266 14.1559 87.7959 12.5243 91.793 12.5243C97.0338 12.5243 100.693 14.5847 102.783 18.1815C105.151 14.753 109.064 12.5243 113.86 12.5243Z" fill="#191F28" stroke="#191F28" stroke-width="0.395367"/>
<mask id="mask1_2812_21347" style="mask-type:alpha" maskUnits="userSpaceOnUse" x="3" y="30" width="45" height="28">
<mask id="path-8-inside-4_2812_21347" fill="white">
<path d="M3.80621 30.337C3.51374 30.3373 3.27634 30.5747 3.28235 30.8671C3.3841 35.8169 4.84336 40.6475 7.50567 44.8295C10.2628 49.1606 14.1963 52.617 18.8459 54.7945C23.4956 56.9719 28.6691 57.7803 33.7614 57.1251C38.6784 56.4925 43.3233 54.5205 47.1906 51.4294C47.4191 51.2468 47.4494 50.9125 47.2624 50.6876L37.0341 38.3925C36.847 38.1677 36.514 38.1383 36.2795 38.3131C34.9064 39.3373 33.2901 39.9927 31.5853 40.2121C29.705 40.454 27.7947 40.1555 26.0779 39.3515C24.3611 38.5475 22.9087 37.2712 21.8906 35.672C20.9675 34.222 20.4361 32.5608 20.3437 30.8503C20.3279 30.5583 20.092 30.3213 19.7996 30.3215L3.80621 30.337Z"/>
</mask>
<path d="M3.80621 30.337C3.51374 30.3373 3.27634 30.5747 3.28235 30.8671C3.3841 35.8169 4.84336 40.6475 7.50567 44.8295C10.2628 49.1606 14.1963 52.617 18.8459 54.7945C23.4956 56.9719 28.6691 57.7803 33.7614 57.1251C38.6784 56.4925 43.3233 54.5205 47.1906 51.4294C47.4191 51.2468 47.4494 50.9125 47.2624 50.6876L37.0341 38.3925C36.847 38.1677 36.514 38.1383 36.2795 38.3131C34.9064 39.3373 33.2901 39.9927 31.5853 40.2121C29.705 40.454 27.7947 40.1555 26.0779 39.3515C24.3611 38.5475 22.9087 37.2712 21.8906 35.672C20.9675 34.222 20.4361 32.5608 20.3437 30.8503C20.3279 30.5583 20.092 30.3213 19.7996 30.3215L3.80621 30.337Z" stroke="url(#paint4_linear_2812_21347)" stroke-width="34.0712" mask="url(#path-8-inside-4_2812_21347)"/>
</mask>
<g mask="url(#mask1_2812_21347)">
<mask id="path-9-inside-5_2812_21347" fill="white">
<path d="M3.80621 30.337C3.51374 30.3373 3.27634 30.5747 3.28235 30.8671C3.3841 35.8169 4.84336 40.6475 7.50567 44.8295C10.2628 49.1606 14.1963 52.617 18.8459 54.7945C23.4956 56.9719 28.6691 57.7803 33.7614 57.1251C38.6784 56.4925 43.3233 54.5205 47.1906 51.4294C47.4191 51.2468 47.4494 50.9125 47.2624 50.6876L37.0341 38.3925C36.847 38.1677 36.514 38.1383 36.2795 38.3131C34.9064 39.3373 33.2901 39.9927 31.5853 40.2121C29.705 40.454 27.7947 40.1555 26.0779 39.3515C24.3611 38.5475 22.9087 37.2712 21.8906 35.672C20.9675 34.222 20.4361 32.5608 20.3437 30.8503C20.3279 30.5583 20.092 30.3213 19.7996 30.3215L3.80621 30.337Z"/>
</mask>
<path d="M3.80621 30.337C3.51374 30.3373 3.27634 30.5747 3.28235 30.8671C3.3841 35.8169 4.84336 40.6475 7.50567 44.8295C10.2628 49.1606 14.1963 52.617 18.8459 54.7945C23.4956 56.9719 28.6691 57.7803 33.7614 57.1251C38.6784 56.4925 43.3233 54.5205 47.1906 51.4294C47.4191 51.2468 47.4494 50.9125 47.2624 50.6876L37.0341 38.3925C36.847 38.1677 36.514 38.1383 36.2795 38.3131C34.9064 39.3373 33.2901 39.9927 31.5853 40.2121C29.705 40.454 27.7947 40.1555 26.0779 39.3515C24.3611 38.5475 22.9087 37.2712 21.8906 35.672C20.9675 34.222 20.4361 32.5608 20.3437 30.8503C20.3279 30.5583 20.092 30.3213 19.7996 30.3215L3.80621 30.337Z" stroke="url(#paint5_linear_2812_21347)" stroke-width="34.0712" mask="url(#path-9-inside-5_2812_21347)"/>
<rect x="42.1729" y="46.1261" width="42.1725" height="42.1725" rx="21.0862" transform="rotate(180 42.1729 46.1261)" fill="url(#paint6_linear_2812_21347)" fill-opacity="0.2"/>
</g>
<defs>
<linearGradient id="paint0_linear_2812_21347" x1="15.1559" y1="9.88419" x2="56.6695" y2="29.6525" gradientUnits="userSpaceOnUse">
<stop stop-color="#1C8AFF"/>
<stop offset="1" stop-color="#055FFE"/>
</linearGradient>
<linearGradient id="paint1_linear_2812_21347" x1="15.1559" y1="9.88419" x2="56.6695" y2="29.6525" gradientUnits="userSpaceOnUse">
<stop stop-color="#1C8AFF"/>
<stop offset="1" stop-color="#055FFE"/>
</linearGradient>
<linearGradient id="paint2_linear_2812_21347" x1="15.1559" y1="9.88419" x2="56.6695" y2="29.6525" gradientUnits="userSpaceOnUse">
<stop stop-color="#1C8AFF"/>
<stop offset="1" stop-color="#055FFE"/>
</linearGradient>
<linearGradient id="paint3_linear_2812_21347" x1="37.5596" y1="17.1325" x2="56.669" y2="31.6293" gradientUnits="userSpaceOnUse">
<stop stop-color="#000C21"/>
<stop offset="1" stop-color="#000C21" stop-opacity="0"/>
</linearGradient>
<linearGradient id="paint4_linear_2812_21347" x1="45.4671" y1="50.7386" x2="3.95359" y2="30.9703" gradientUnits="userSpaceOnUse">
<stop stop-color="#1C8AFF"/>
<stop offset="1" stop-color="#055FFE"/>
</linearGradient>
<linearGradient id="paint5_linear_2812_21347" x1="45.4671" y1="50.7386" x2="3.95359" y2="30.9703" gradientUnits="userSpaceOnUse">
<stop stop-color="#1C8AFF"/>
<stop offset="1" stop-color="#055FFE"/>
</linearGradient>
<linearGradient id="paint6_linear_2812_21347" x1="61.2823" y1="48.7619" x2="80.3916" y2="63.2587" gradientUnits="userSpaceOnUse">
<stop stop-color="#000C21"/>
<stop offset="1" stop-color="#000C21" stop-opacity="0"/>
</linearGradient>
</defs>
</svg>
