<svg width="54" height="15" viewBox="0 0 54 15" fill="none" xmlns="http://www.w3.org/2000/svg">
<path d="M45.4238 0.991211C46.8852 0.991211 48.2113 1.4469 49.1982 2.23047C49.287 2.30073 49.4082 2.30837 49.5098 2.26562C49.6108 2.22306 49.6806 2.13656 49.6807 2.02832V1.25488H52.9551V14.2676H49.6807V13.4111C49.6805 13.3013 49.6079 13.2132 49.5029 13.1709C49.3971 13.1283 49.2721 13.1388 49.1836 13.2129C48.1863 14.0492 46.8343 14.5312 45.3779 14.5312C42.0882 14.5312 38.6543 12.0409 38.6543 7.77148C38.6545 3.45893 41.9722 0.991272 45.4238 0.991211ZM45.8857 3.85352C43.6213 3.85352 41.883 5.55547 41.8828 7.72754C41.8828 9.92262 43.6221 11.6455 45.8857 11.6455C48.1705 11.6453 49.8418 9.9023 49.8418 7.72754C49.8416 5.57579 48.1712 3.85373 45.8857 3.85352Z" fill="#2373EB" stroke="#2373EB" stroke-width="0.160877"/>
<path d="M30.6963 0.991211C34.6124 0.991211 37.7664 3.96704 37.7666 7.77148C37.7666 11.51 34.6127 14.5312 30.6963 14.5312C26.7568 14.5311 23.627 11.5098 23.627 7.77148C23.6272 3.96727 26.7571 0.991312 30.6963 0.991211ZM30.6963 3.94141C28.5039 3.94151 26.8557 5.64066 26.8555 7.77148C26.8555 9.85854 28.5038 11.58 30.6963 11.5801C32.8661 11.5801 34.5371 9.8583 34.5371 7.77148C34.5369 5.64091 32.866 3.94141 30.6963 3.94141Z" fill="#2373EB" stroke="#2373EB" stroke-width="0.160877"/>
<path d="M16.8799 0.991211C18.7281 0.991211 20.1241 1.50029 21.0576 2.44531C21.9909 3.39024 22.4502 4.75947 22.4502 6.4541V14.2676H19.1064V6.69531C19.1064 5.77517 18.8621 5.03329 18.3896 4.52246C17.9181 4.01276 17.2087 3.72168 16.2568 3.72168C15.4328 3.72178 14.7117 3.9907 14.1963 4.5293C13.6806 5.06824 13.3623 5.88675 13.3623 7.00293V14.2676H10.041V6.60742C10.041 5.69812 9.80243 4.97873 9.34473 4.4873C8.88785 3.9968 8.202 3.72171 7.28418 3.72168C6.42539 3.72168 5.68629 4.00138 5.16211 4.55371C4.6378 5.10626 4.31943 5.94129 4.31934 7.06836V14.2676H1.04492V1.25488H4.29688V1.91016C4.29702 2.02088 4.37048 2.1095 4.47852 2.15234C4.58724 2.19542 4.71495 2.18517 4.80469 2.11035C5.64498 1.40857 6.75959 0.991211 8.06836 0.991211C9.98578 0.991219 11.3755 1.64855 12.2383 2.81641C12.3479 2.96489 12.5807 2.97429 12.6992 2.83496C13.6595 1.70604 15.1214 0.991275 16.8799 0.991211Z" fill="#2373EB" stroke="#2373EB" stroke-width="0.160877"/>
</svg>
