<svg width="83" height="25" viewBox="0 0 83 25" fill="none" xmlns="http://www.w3.org/2000/svg">
<path d="M69.8203 1.6051C72.0611 1.60512 74.0939 2.33694 75.6094 3.59436C75.7451 3.707 75.9339 3.72197 76.0938 3.65686C76.2527 3.59214 76.3623 3.45812 76.3623 3.28967V2.03088H81.3965V23.0201H76.3623V21.6295C76.3622 21.4584 76.2484 21.3218 76.083 21.2574C75.9167 21.1928 75.722 21.2115 75.5869 21.3297C74.0555 22.6718 71.9825 23.4449 69.749 23.4449C64.687 23.4448 59.4143 19.4241 59.4141 12.5436C59.4141 5.59255 64.509 1.6051 69.8203 1.6051ZM70.5293 6.2135C67.0543 6.21352 64.377 8.95728 64.377 12.4723C64.377 16.0241 67.0557 18.8014 70.5293 18.8014C74.0357 18.8014 76.6103 15.9914 76.6104 12.4723C76.6104 8.98992 74.0371 6.2135 70.5293 6.2135Z" fill="#2373EB" stroke="#2373EB" stroke-width="0.247273"/>
<path d="M47.1846 1.6051C53.2096 1.60516 58.0508 6.41269 58.0508 12.5436C58.0505 18.5676 53.2097 23.4449 47.1846 23.4449C41.1237 23.4449 36.3176 18.5674 36.3174 12.5436C36.3174 6.41292 41.1238 1.6051 47.1846 1.6051ZM47.1846 6.35608C43.8201 6.35608 41.2803 9.09514 41.2803 12.5436C41.2805 15.9209 43.8203 18.6949 47.1846 18.6949C50.5138 18.6949 53.0876 15.9204 53.0879 12.5436C53.0879 9.09567 50.514 6.35614 47.1846 6.35608Z" fill="#2373EB" stroke="#2373EB" stroke-width="0.247273"/>
<path d="M25.9453 1.6051C28.7879 1.6051 30.9347 2.42876 32.3691 3.95374C33.8023 5.4774 34.5078 7.68349 34.5078 10.4156V23.0201H29.3672V10.8053C29.3671 9.31806 28.991 8.11934 28.2637 7.29358C27.5384 6.47016 26.4496 6.00061 24.9883 6.00061C23.7234 6.00063 22.6152 6.43338 21.8223 7.30334C21.0284 8.17441 20.5381 9.49825 20.5381 11.3024V23.0201H15.4336V10.6637C15.4336 9.1938 15.0661 8.03047 14.3613 7.23596C13.6586 6.44377 12.6052 6.00064 11.1963 6.00061C9.87821 6.00061 8.74368 6.45143 7.9375 7.34338C7.13026 8.23654 6.63965 9.58667 6.63965 11.4088V23.0201H1.60547V2.03088H6.60449V3.09729C6.60449 3.26962 6.72052 3.40809 6.89062 3.47327C7.06146 3.53868 7.26055 3.51918 7.39746 3.40002C8.68714 2.27525 10.3958 1.60516 12.4014 1.6051C15.346 1.6051 17.48 2.66492 18.8057 4.5426C18.9733 4.7801 19.3445 4.79446 19.5264 4.57092C21.0016 2.75629 23.2457 1.60521 25.9453 1.6051Z" fill="#2373EB" stroke="#2373EB" stroke-width="0.247273"/>
</svg>
