<svg width="30" height="30" viewBox="0 0 30 30" fill="none" xmlns="http://www.w3.org/2000/svg">
<path d="M21.085 16.2159C21.9878 16.3077 22.8827 16.5029 23.749 16.8068C24.4984 17.0698 24.998 17.7673 24.998 18.549V19.3829C24.998 20.476 24.0128 21.3158 22.9111 21.1613L22.6582 21.1261C22.6072 21.1189 22.556 21.1133 22.5049 21.1066C22.5736 20.8282 22.6113 20.5368 22.6113 20.2355V19.1993C22.6113 17.9969 22.0262 16.8968 21.085 16.2159ZM19.9102 9.15344C21.6505 9.15344 23.0615 10.5396 23.0615 12.2491C23.0614 13.9586 21.6505 15.3439 19.9102 15.3439C19.4772 15.3438 19.0649 15.2579 18.6895 15.1027C19.6521 14.154 20.25 12.8354 20.25 11.3771C20.2499 10.5829 20.0716 9.83054 19.7549 9.15637C19.8063 9.15392 19.8581 9.15345 19.9102 9.15344Z" fill="#A9B3BD"/>
<path d="M8.91309 16.2159C8.01027 16.3077 7.11532 16.5029 6.24902 16.8068C5.49968 17.0698 5.00003 17.7673 5 18.549V19.3829C5 20.476 5.98529 21.3158 7.08691 21.1613L7.33984 21.1261C7.39087 21.1189 7.4421 21.1133 7.49316 21.1066C7.42449 20.8282 7.38675 20.5368 7.38672 20.2355V19.1993C7.38673 17.9969 7.9718 16.8968 8.91309 16.2159ZM10.0879 9.15344C8.3475 9.15344 6.93652 10.5396 6.93652 12.2491C6.93664 13.9586 8.34757 15.3439 10.0879 15.3439C10.5208 15.3438 10.9331 15.2579 11.3086 15.1027C10.3459 14.154 9.74805 12.8354 9.74805 11.3771C9.74812 10.5829 9.92643 9.83054 10.2432 9.15637C10.1917 9.15392 10.1399 9.15345 10.0879 9.15344Z" fill="#A9B3BD"/>
<path fill-rule="evenodd" clip-rule="evenodd" d="M18.8625 11.3775C18.8625 9.25503 17.1419 7.53442 15.0195 7.53442C12.897 7.53442 11.1764 9.25503 11.1764 11.3775C11.1764 13.5 12.897 15.2206 15.0195 15.2206C17.1419 15.2206 18.8625 13.5 18.8625 11.3775Z" fill="#A9B3BD"/>
<path fill-rule="evenodd" clip-rule="evenodd" d="M10.3386 17.0365C13.3656 15.9554 16.6734 15.9554 19.7003 17.0365C20.6143 17.3629 21.2245 18.2287 21.2245 19.1993V20.235C21.2245 21.5922 20.0225 22.6346 18.679 22.4427L18.3705 22.3986C16.1477 22.0811 13.8912 22.0811 11.6685 22.3986L11.3599 22.4427C10.0164 22.6346 8.81445 21.5921 8.81445 20.235V19.1993C8.81445 18.2287 9.4246 17.3629 10.3386 17.0365Z" fill="#A9B3BD"/>
</svg>
