<svg width="30" height="30" viewBox="0 0 30 30" fill="none" xmlns="http://www.w3.org/2000/svg">
<path d="M21.0864 16.2158C21.9892 16.3076 22.8842 16.5027 23.7505 16.8066C24.4998 17.0696 24.9995 17.7672 24.9995 18.5488V19.3828C24.9995 20.4759 24.0142 21.3157 22.9126 21.1611L22.6597 21.126C22.6086 21.1188 22.5574 21.1132 22.5063 21.1064C22.575 20.8281 22.6128 20.5367 22.6128 20.2354V19.1992C22.6128 17.9967 22.0277 16.8967 21.0864 16.2158ZM19.9116 9.15332C21.652 9.15332 23.063 10.5395 23.063 12.249C23.0629 13.9585 21.6519 15.3438 19.9116 15.3438C19.4787 15.3437 19.0664 15.2577 18.6909 15.1025C19.6536 14.1539 20.2515 12.8353 20.2515 11.377C20.2514 10.5828 20.0731 9.83042 19.7563 9.15625C19.8078 9.15379 19.8596 9.15333 19.9116 9.15332Z" fill="#2C3745"/>
<path d="M8.91357 16.2158C8.01075 16.3076 7.1158 16.5027 6.24951 16.8066C5.50017 17.0696 5.00051 17.7672 5.00049 18.5488V19.3828C5.00049 20.4759 5.98578 21.3157 7.0874 21.1611L7.34033 21.126C7.39136 21.1188 7.44258 21.1132 7.49365 21.1064C7.42498 20.8281 7.38724 20.5367 7.38721 20.2354V19.1992C7.38722 17.9967 7.97229 16.8967 8.91357 16.2158ZM10.0884 9.15332C8.34799 9.15332 6.93701 10.5395 6.93701 12.249C6.93712 13.9585 8.34805 15.3438 10.0884 15.3438C10.5213 15.3437 10.9336 15.2577 11.3091 15.1025C10.3464 14.1539 9.74854 12.8353 9.74854 11.377C9.74861 10.5828 9.92692 9.83042 10.2437 9.15625C10.1922 9.15379 10.1404 9.15333 10.0884 9.15332Z" fill="#2C3745"/>
<path fill-rule="evenodd" clip-rule="evenodd" d="M18.8638 11.3775C18.8638 9.25503 17.1432 7.53442 15.0207 7.53442C12.8982 7.53442 11.1776 9.25503 11.1776 11.3775C11.1776 13.5 12.8982 15.2206 15.0207 15.2206C17.1432 15.2206 18.8638 13.5 18.8638 11.3775Z" fill="#2C3745"/>
<path fill-rule="evenodd" clip-rule="evenodd" d="M10.3399 17.0365C13.3668 15.9554 16.6746 15.9554 19.7015 17.0365C20.6156 17.3629 21.2257 18.2287 21.2257 19.1993V20.235C21.2257 21.5922 20.0237 22.6346 18.6802 22.4427L18.3717 22.3986C16.149 22.0811 13.8924 22.0811 11.6697 22.3986L11.3611 22.4427C10.0177 22.6346 8.81567 21.5921 8.81567 20.235V19.1993C8.81567 18.2287 9.42582 17.3629 10.3399 17.0365Z" fill="#2C3745"/>
</svg>
