<svg width="29" height="34" viewBox="0 0 29 34" fill="none" xmlns="http://www.w3.org/2000/svg">
<path d="M0 2C0 0.89543 0.895431 0 2 0H26.5C27.6046 0 28.5 0.895431 28.5 2V23.7359C28.5 24.2279 28.3186 24.7027 27.9905 25.0695L20.5963 33.3336C20.2169 33.7576 19.6748 34 19.1058 34H2C0.895431 34 0 33.1046 0 32V2Z" fill="#D9DADD"/>
<mask id="mask0_2992_7108" style="mask-type:alpha" maskUnits="userSpaceOnUse" x="0" y="0" width="29" height="34">
<path d="M0 2C0 0.89543 0.895431 0 2 0H26.5C27.6046 0 28.5 0.895431 28.5 2V23.7359C28.5 24.2279 28.3186 24.7027 27.9905 25.0695L20.5963 33.3336C20.2169 33.7576 19.6748 34 19.1058 34H2C0.895431 34 0 33.1046 0 32V2Z" fill="#DEE0E4"/>
</mask>
<g mask="url(#mask0_2992_7108)">
<path d="M19.3315 24.9589C19.3315 24.4067 19.7792 23.959 20.3315 23.9589L30.4191 23.9585L19.3315 35.4605L19.3315 24.9589Z" fill="#BEBFC6"/>
</g>
</svg>
