<svg width="30" height="30" viewBox="0 0 30 30" fill="none" xmlns="http://www.w3.org/2000/svg">
<path d="M13.4687 20.4377C13.7862 20.745 14.2927 20.7367 14.5999 20.4192C14.9072 20.1017 14.8989 19.5952 14.5814 19.288L14.025 19.8629L13.4687 20.4377ZM9 14.9999L8.44366 14.425C8.28793 14.5757 8.2 14.7832 8.2 14.9999C8.2 15.2166 8.28793 15.4241 8.44366 15.5748L9 14.9999ZM14.5814 10.7118C14.8989 10.4046 14.9072 9.89812 14.5999 9.58063C14.2927 9.26313 13.7862 9.25482 13.4687 9.56208L14.025 10.137L14.5814 10.7118ZM19.3318 20.2807C19.6493 20.588 20.1557 20.5796 20.463 20.2621C20.7702 19.9446 20.7619 19.4382 20.4444 19.1309L19.8881 19.7058L19.3318 20.2807ZM15.0251 15L14.4688 14.4251C14.3131 14.5758 14.2251 14.7833 14.2251 15C14.2251 15.2167 14.3131 15.4242 14.4688 15.5749L15.0251 15ZM20.4444 10.8691C20.7619 10.5618 20.7702 10.0554 20.463 9.73787C20.1557 9.42036 19.6493 9.41204 19.3318 9.71929L19.8881 10.2942L20.4444 10.8691ZM14.025 19.8629L14.5814 19.288L9.55634 14.425L9 14.9999L8.44366 15.5748L13.4687 20.4377L14.025 19.8629ZM9 14.9999L9.55634 15.5748L14.5814 10.7118L14.025 10.137L13.4687 9.56208L8.44366 14.425L9 14.9999ZM19.8881 19.7058L20.4444 19.1309L15.5815 14.4251L15.0251 15L14.4688 15.5749L19.3318 20.2807L19.8881 19.7058ZM15.0251 15L15.5815 15.5749L20.4444 10.8691L19.8881 10.2942L19.3318 9.71929L14.4688 14.4251L15.0251 15Z" fill="#A9B3BD"/>
</svg>
