<svg width="18" height="18" viewBox="0 0 18 18" fill="none" xmlns="http://www.w3.org/2000/svg">
<path d="M9 6.5625C8.4825 6.5625 8.0625 6.9825 8.0625 7.5V7.58025C8.0625 7.72943 8.00324 7.87251 7.89775 7.978C7.79226 8.08349 7.64918 8.14275 7.5 8.14275C7.35082 8.14275 7.20774 8.08349 7.10225 7.978C6.99676 7.87251 6.9375 7.72943 6.9375 7.58025V7.5C6.9375 6.95299 7.1548 6.42839 7.54159 6.04159C7.92839 5.6548 8.45299 5.4375 9 5.4375H9.087C9.49048 5.43769 9.88423 5.56141 10.2153 5.79204C10.5464 6.02267 10.7989 6.34914 10.9389 6.72756C11.0789 7.10597 11.0996 7.51818 10.9984 7.90874C10.8971 8.29931 10.6787 8.64951 10.3725 8.91225L9.795 9.40725C9.72255 9.47015 9.66433 9.54776 9.62424 9.63493C9.58415 9.7221 9.5631 9.81681 9.5625 9.91275V10.3125C9.5625 10.4617 9.50324 10.6048 9.39775 10.7102C9.29226 10.8157 9.14918 10.875 9 10.875C8.85082 10.875 8.70774 10.8157 8.60225 10.7102C8.49676 10.6048 8.4375 10.4617 8.4375 10.3125V9.91275C8.4375 9.39 8.6655 8.8935 9.06225 8.55375L9.6405 8.05875C9.77244 7.94566 9.86658 7.79486 9.91023 7.62665C9.95389 7.45845 9.94497 7.28091 9.88468 7.11792C9.82438 6.95494 9.71561 6.81433 9.573 6.71503C9.43039 6.61573 9.26078 6.5625 9.087 6.5625H9ZM9 12.75C9.19891 12.75 9.38968 12.671 9.53033 12.5303C9.67098 12.3897 9.75 12.1989 9.75 12C9.75 11.8011 9.67098 11.6103 9.53033 11.4697C9.38968 11.329 9.19891 11.25 9 11.25C8.80109 11.25 8.61032 11.329 8.46967 11.4697C8.32902 11.6103 8.25 11.8011 8.25 12C8.25 12.1989 8.32902 12.3897 8.46967 12.5303C8.61032 12.671 8.80109 12.75 9 12.75Z" fill="#A0A9B7"/>
<path d="M2.4375 9C2.4375 7.25952 3.1289 5.59032 4.35961 4.35961C5.59032 3.1289 7.25952 2.4375 9 2.4375C10.7405 2.4375 12.4097 3.1289 13.6404 4.35961C14.8711 5.59032 15.5625 7.25952 15.5625 9C15.5625 10.7405 14.8711 12.4097 13.6404 13.6404C12.4097 14.8711 10.7405 15.5625 9 15.5625C7.25952 15.5625 5.59032 14.8711 4.35961 13.6404C3.1289 12.4097 2.4375 10.7405 2.4375 9ZM9 3.5625C8.28594 3.5625 7.57887 3.70314 6.91916 3.9764C6.25945 4.24966 5.66003 4.65019 5.15511 5.15511C4.65019 5.66003 4.24966 6.25945 3.9764 6.91916C3.70314 7.57887 3.5625 8.28594 3.5625 9C3.5625 9.71406 3.70314 10.4211 3.9764 11.0808C4.24966 11.7405 4.65019 12.34 5.15511 12.8449C5.66003 13.3498 6.25945 13.7503 6.91916 14.0236C7.57887 14.2969 8.28594 14.4375 9 14.4375C10.4421 14.4375 11.8252 13.8646 12.8449 12.8449C13.8646 11.8252 14.4375 10.4421 14.4375 9C14.4375 7.55789 13.8646 6.17484 12.8449 5.15511C11.8252 4.13538 10.4421 3.5625 9 3.5625Z" fill="#A0A9B7"/>
</svg>
