<svg width="18" height="18" viewBox="0 0 18 18" fill="none" xmlns="http://www.w3.org/2000/svg">
<path d="M13.2374 2.70966C13.3276 2.46589 13.6724 2.46589 13.7626 2.70966L14.0473 3.47893C14.2999 4.16174 14.8383 4.70009 15.5211 4.95275L16.2903 5.2374C16.5341 5.32761 16.5341 5.67239 16.2903 5.7626L15.5211 6.04725C14.8383 6.29991 14.2999 6.83827 14.0473 7.52107L13.7626 8.29034C13.6724 8.53411 13.3276 8.53411 13.2374 8.29034L12.9527 7.52107C12.7001 6.83826 12.1617 6.29991 11.4789 6.04725L10.7097 5.7626C10.4659 5.67239 10.4659 5.32761 10.7097 5.2374L11.4789 4.95275C12.1617 4.70009 12.7001 4.16173 12.9527 3.47893L13.2374 2.70966Z" fill="#D949E6"/>
<path d="M6.54983 5.21656C6.70447 4.79867 7.29553 4.79867 7.45017 5.21656L7.93815 6.5353C8.37128 7.70583 9.29417 8.62872 10.4647 9.06185L11.7834 9.54983C12.2013 9.70447 12.2013 10.2955 11.7834 10.4502L10.4647 10.9381C9.29417 11.3713 8.37128 12.2942 7.93815 13.4647L7.45017 14.7834C7.29553 15.2013 6.70447 15.2013 6.54983 14.7834L6.06185 13.4647C5.62872 12.2942 4.70583 11.3713 3.5353 10.9381L2.21656 10.4502C1.79867 10.2955 1.79867 9.70447 2.21656 9.54983L3.5353 9.06185C4.70583 8.62872 5.62872 7.70583 6.06185 6.5353L6.54983 5.21656Z" fill="#D949E6"/>
</svg>
