<svg width="64" height="28" viewBox="0 0 64 28" fill="none" xmlns="http://www.w3.org/2000/svg">
<path d="M32.8438 26.6708C32.4509 27.2893 31.5483 27.2893 31.1555 26.6708L28.9397 23.1818L35.0596 23.1818L32.8438 26.6708Z" fill="#333D4B"/>
<rect x="64" y="23.1819" width="64" height="22" rx="4" transform="rotate(-180 64 23.1819)" fill="#333D4B"/>
<path d="M11.7031 9.38501C11.7031 11.1663 12.3125 12.9124 13.7773 13.6975L13.0039 14.7288C12.0488 14.1956 11.4219 13.2698 11.0703 12.1389C10.6777 13.387 9.99805 14.4299 9.00781 15.0217L8.17578 14.0725C9.73438 13.1584 10.4375 11.2717 10.4375 9.46704V7.56861H11.7031V9.38501ZM17.4922 6.63111V17.2249H16.2383V11.8577H15.1484V16.7092H13.918V6.81861H15.1484V10.803H16.2383V6.63111H17.4922ZM27.2773 7.2522V8.30689H23.4805V9.29126H26.9727V10.3108H23.4805V11.3538C25.4609 11.3479 26.668 11.3127 28.0625 11.0842L28.1914 12.1038C26.668 12.3733 25.3438 12.3967 23.0586 12.385H22.1562V7.2522H27.2773ZM30.3945 6.64282V12.9358H29.082V6.64282H30.3945ZM30.3945 13.4045V17.0959H23.3633V13.4045H30.3945ZM24.6523 14.4124V16.0413H29.1172V14.4124H24.6523ZM44.4453 12.9944V14.0608H40.25V17.2366H38.9609V14.0608H34.7891V12.9944H44.4453ZM43.543 7.88501V8.91626H40.2734C40.3965 9.96509 41.7734 11.0608 43.8945 11.3186L43.4141 12.3499C41.6621 12.1272 40.3027 11.3538 39.6172 10.3342C38.9199 11.3655 37.5488 12.1272 35.7852 12.3499L35.3164 11.3186C37.4316 11.0608 38.8203 9.98267 38.9492 8.91626H35.6797V7.88501H38.9609V6.64282H40.25V7.88501H43.543ZM53.457 6.63111V10.7678H55.0273V11.8577H53.457V17.2014H52.1562V6.63111H53.457ZM50.6562 7.73267C50.6562 10.8499 49.3672 13.5803 45.8398 15.3147L45.1016 14.3069C47.6797 13.0237 49.0742 11.219 49.3438 8.81079H45.6758V7.73267H50.6562Z" fill="#F3F4F5"/>
</svg>
