<svg width="72" height="21" viewBox="0 0 72 21" fill="none" xmlns="http://www.w3.org/2000/svg">
<g clip-path="url(#clip0_2392_80)">
<mask id="mask0_2392_80" style="mask-type:alpha" maskUnits="userSpaceOnUse" x="4" y="1" width="16" height="10">
<mask id="path-1-inside-1_2392_80" fill="white">
<path d="M19.6815 10.491C19.7828 10.4909 19.8651 10.4087 19.863 10.3074C19.8277 8.59281 19.3222 6.91948 18.4 5.47079C17.4449 3.97049 16.0823 2.77317 14.4717 2.0189C12.861 1.26463 11.0689 0.984597 9.30494 1.21156C7.60166 1.43071 5.99264 2.11381 4.653 3.18457C4.57386 3.24782 4.56336 3.36364 4.62815 3.44152L8.17126 7.7006C8.23605 7.77848 8.35143 7.78867 8.43264 7.7281C8.90829 7.37333 9.46818 7.14628 10.0587 7.0703C10.7101 6.9865 11.3718 7.0899 11.9665 7.3684C12.5612 7.64691 13.0643 8.08901 13.417 8.64298C13.7368 9.14527 13.9208 9.72071 13.9529 10.3132C13.9583 10.4144 14.0401 10.4965 14.1414 10.4964L19.6815 10.491Z"/>
</mask>
<path d="M19.6815 10.491C19.7828 10.4909 19.8651 10.4087 19.863 10.3074C19.8277 8.59281 19.3222 6.91948 18.4 5.47079C17.4449 3.97049 16.0823 2.77317 14.4717 2.0189C12.861 1.26463 11.0689 0.984597 9.30494 1.21156C7.60166 1.43071 5.99264 2.11381 4.653 3.18457C4.57386 3.24782 4.56336 3.36364 4.62815 3.44152L8.17126 7.7006C8.23605 7.77848 8.35143 7.78867 8.43264 7.7281C8.90829 7.37333 9.46818 7.14628 10.0587 7.0703C10.7101 6.9865 11.3718 7.0899 11.9665 7.3684C12.5612 7.64691 13.0643 8.08901 13.417 8.64298C13.7368 9.14527 13.9208 9.72071 13.9529 10.3132C13.9583 10.4144 14.0401 10.4965 14.1414 10.4964L19.6815 10.491Z" stroke="url(#paint0_linear_2392_80)" stroke-width="11.8024" mask="url(#path-1-inside-1_2392_80)"/>
</mask>
<g mask="url(#mask0_2392_80)">
<mask id="path-2-inside-2_2392_80" fill="white">
<path d="M19.6815 10.491C19.7828 10.4909 19.8651 10.4087 19.863 10.3074C19.8277 8.59281 19.3222 6.91948 18.4 5.47079C17.4449 3.97049 16.0823 2.77317 14.4717 2.0189C12.861 1.26463 11.0689 0.984597 9.30494 1.21156C7.60166 1.43071 5.99264 2.11381 4.653 3.18457C4.57386 3.24782 4.56336 3.36364 4.62815 3.44152L8.17126 7.7006C8.23605 7.77848 8.35143 7.78867 8.43264 7.7281C8.90829 7.37333 9.46818 7.14628 10.0587 7.0703C10.7101 6.9865 11.3718 7.0899 11.9665 7.3684C12.5612 7.64691 13.0643 8.08901 13.417 8.64298C13.7368 9.14527 13.9208 9.72071 13.9529 10.3132C13.9583 10.4144 14.0401 10.4965 14.1414 10.4964L19.6815 10.491Z"/>
</mask>
<path d="M19.6815 10.491C19.7828 10.4909 19.8651 10.4087 19.863 10.3074C19.8277 8.59281 19.3222 6.91948 18.4 5.47079C17.4449 3.97049 16.0823 2.77317 14.4717 2.0189C12.861 1.26463 11.0689 0.984597 9.30494 1.21156C7.60166 1.43071 5.99264 2.11381 4.653 3.18457C4.57386 3.24782 4.56336 3.36364 4.62815 3.44152L8.17126 7.7006C8.23605 7.77848 8.35143 7.78867 8.43264 7.7281C8.90829 7.37333 9.46818 7.14628 10.0587 7.0703C10.7101 6.9865 11.3718 7.0899 11.9665 7.3684C12.5612 7.64691 13.0643 8.08901 13.417 8.64298C13.7368 9.14527 13.9208 9.72071 13.9529 10.3132C13.9583 10.4144 14.0401 10.4965 14.1414 10.4964L19.6815 10.491Z" stroke="url(#paint1_linear_2392_80)" stroke-width="11.8024" mask="url(#path-2-inside-2_2392_80)"/>
<mask id="path-3-inside-3_2392_80" fill="white">
<path d="M19.6815 10.491C19.7828 10.4909 19.8651 10.4087 19.863 10.3074C19.8277 8.59281 19.3222 6.91948 18.4 5.47079C17.4449 3.97049 16.0823 2.77317 14.4717 2.0189C12.861 1.26463 11.0689 0.984597 9.30494 1.21156C7.60166 1.43071 5.99264 2.11381 4.653 3.18457C4.57386 3.24782 4.56336 3.36364 4.62815 3.44152L8.17126 7.7006C8.23605 7.77848 8.35143 7.78867 8.43264 7.7281C8.90829 7.37333 9.46818 7.14628 10.0587 7.0703C10.7101 6.9865 11.3718 7.0899 11.9665 7.3684C12.5612 7.64691 13.0643 8.08901 13.417 8.64298C13.7368 9.14527 13.9208 9.72071 13.9529 10.3132C13.9583 10.4144 14.0401 10.4965 14.1414 10.4964L19.6815 10.491Z"/>
</mask>
<path d="M19.6815 10.491C19.7828 10.4909 19.8651 10.4087 19.863 10.3074C19.8277 8.59281 19.3222 6.91948 18.4 5.47079C17.4449 3.97049 16.0823 2.77317 14.4717 2.0189C12.861 1.26463 11.0689 0.984597 9.30494 1.21156C7.60166 1.43071 5.99264 2.11381 4.653 3.18457C4.57386 3.24782 4.56336 3.36364 4.62815 3.44152L8.17126 7.7006C8.23605 7.77848 8.35143 7.78867 8.43264 7.7281C8.90829 7.37333 9.46818 7.14628 10.0587 7.0703C10.7101 6.9865 11.3718 7.0899 11.9665 7.3684C12.5612 7.64691 13.0643 8.08901 13.417 8.64298C13.7368 9.14527 13.9208 9.72071 13.9529 10.3132C13.9583 10.4144 14.0401 10.4965 14.1414 10.4964L19.6815 10.491Z" stroke="url(#paint2_linear_2392_80)" stroke-width="11.8024" mask="url(#path-3-inside-3_2392_80)"/>
<rect x="6.3916" y="5.02173" width="14.6087" height="14.6087" rx="7.30435" fill="url(#paint3_linear_2392_80)" fill-opacity="0.2"/>
</g>
<mask id="mask1_2392_80" style="mask-type:alpha" maskUnits="userSpaceOnUse" x="1" y="10" width="16" height="10">
<mask id="path-5-inside-4_2392_80" fill="white">
<path d="M1.31848 10.5088C1.21717 10.5089 1.13494 10.5912 1.13702 10.6925C1.17226 12.4071 1.67776 14.0804 2.59999 15.5291C3.55509 17.0294 4.91765 18.2267 6.5283 18.981C8.13895 19.7352 9.93109 20.0153 11.6951 19.7883C13.3983 19.5692 15.0074 18.8861 16.347 17.8153C16.4261 17.7521 16.4366 17.6362 16.3719 17.5584L12.8287 13.2993C12.764 13.2214 12.6486 13.2112 12.5674 13.2718C12.0917 13.6266 11.5318 13.8536 10.9413 13.9296C10.2899 14.0134 9.6282 13.91 9.03348 13.6315C8.43877 13.353 7.93565 12.9109 7.583 12.3569C7.26323 11.8546 7.07916 11.2792 7.04712 10.6866C7.04165 10.5855 6.95995 10.5034 6.85864 10.5035L1.31848 10.5088Z"/>
</mask>
<path d="M1.31848 10.5088C1.21717 10.5089 1.13494 10.5912 1.13702 10.6925C1.17226 12.4071 1.67776 14.0804 2.59999 15.5291C3.55509 17.0294 4.91765 18.2267 6.5283 18.981C8.13895 19.7352 9.93109 20.0153 11.6951 19.7883C13.3983 19.5692 15.0074 18.8861 16.347 17.8153C16.4261 17.7521 16.4366 17.6362 16.3719 17.5584L12.8287 13.2993C12.764 13.2214 12.6486 13.2112 12.5674 13.2718C12.0917 13.6266 11.5318 13.8536 10.9413 13.9296C10.2899 14.0134 9.6282 13.91 9.03348 13.6315C8.43877 13.353 7.93565 12.9109 7.583 12.3569C7.26323 11.8546 7.07916 11.2792 7.04712 10.6866C7.04165 10.5855 6.95995 10.5034 6.85864 10.5035L1.31848 10.5088Z" stroke="url(#paint4_linear_2392_80)" stroke-width="11.8024" mask="url(#path-5-inside-4_2392_80)"/>
</mask>
<g mask="url(#mask1_2392_80)">
<mask id="path-6-inside-5_2392_80" fill="white">
<path d="M1.31848 10.5088C1.21717 10.5089 1.13494 10.5912 1.13702 10.6925C1.17226 12.4071 1.67776 14.0804 2.59999 15.5291C3.55509 17.0294 4.91765 18.2267 6.5283 18.981C8.13895 19.7352 9.93109 20.0153 11.6951 19.7883C13.3983 19.5692 15.0074 18.8861 16.347 17.8153C16.4261 17.7521 16.4366 17.6362 16.3719 17.5584L12.8287 13.2993C12.764 13.2214 12.6486 13.2112 12.5674 13.2718C12.0917 13.6266 11.5318 13.8536 10.9413 13.9296C10.2899 14.0134 9.6282 13.91 9.03348 13.6315C8.43877 13.353 7.93565 12.9109 7.583 12.3569C7.26323 11.8546 7.07916 11.2792 7.04712 10.6866C7.04165 10.5855 6.95995 10.5034 6.85864 10.5035L1.31848 10.5088Z"/>
</mask>
<path d="M1.31848 10.5088C1.21717 10.5089 1.13494 10.5912 1.13702 10.6925C1.17226 12.4071 1.67776 14.0804 2.59999 15.5291C3.55509 17.0294 4.91765 18.2267 6.5283 18.981C8.13895 19.7352 9.93109 20.0153 11.6951 19.7883C13.3983 19.5692 15.0074 18.8861 16.347 17.8153C16.4261 17.7521 16.4366 17.6362 16.3719 17.5584L12.8287 13.2993C12.764 13.2214 12.6486 13.2112 12.5674 13.2718C12.0917 13.6266 11.5318 13.8536 10.9413 13.9296C10.2899 14.0134 9.6282 13.91 9.03348 13.6315C8.43877 13.353 7.93565 12.9109 7.583 12.3569C7.26323 11.8546 7.07916 11.2792 7.04712 10.6866C7.04165 10.5855 6.95995 10.5034 6.85864 10.5035L1.31848 10.5088Z" stroke="url(#paint5_linear_2392_80)" stroke-width="11.8024" mask="url(#path-6-inside-5_2392_80)"/>
<rect x="14.6084" y="15.9783" width="14.6087" height="14.6087" rx="7.30435" transform="rotate(180 14.6084 15.9783)" fill="url(#paint6_linear_2392_80)" fill-opacity="0.2"/>
</g>
</g>
<path d="M64.5078 4.30957C66.0045 4.30969 67.3365 4.88607 68.2188 5.84668V4.55078H71.0703V16.4502H68.2188V15.042C67.3332 16.0766 65.9641 16.6914 64.4668 16.6914C61.597 16.6912 58.6084 14.4107 58.6084 10.5098C58.6086 6.56909 61.4968 4.30957 64.5078 4.30957ZM64.9092 6.91992C62.9381 6.92007 61.42 8.47598 61.4199 10.4697C61.4199 12.4844 62.9388 14.0604 64.9092 14.0605C66.8983 14.0605 68.3594 12.466 68.3594 10.4697C68.3593 8.49442 66.899 6.91992 64.9092 6.91992Z" fill="#191F28" stroke="#191F28" stroke-width="0.137606"/>
<path d="M51.6729 4.30957C55.0886 4.30957 57.8338 7.03404 57.834 10.5098C57.834 13.9252 55.0889 16.6914 51.6729 16.6914C48.2367 16.6913 45.5127 13.925 45.5127 10.5098C45.5129 7.03424 48.2369 4.30966 51.6729 4.30957ZM51.6729 7C49.7644 7.00009 48.3244 8.55386 48.3242 10.5098C48.3242 12.4256 49.7643 13.9999 51.6729 14C53.5617 14 55.0225 12.4254 55.0225 10.5098C55.0223 8.55407 53.5615 7 51.6729 7Z" fill="#191F28" stroke="#191F28" stroke-width="0.137606"/>
<path d="M39.6289 4.30957C41.2404 4.30964 42.4565 4.77627 43.2695 5.64062C44.082 6.50432 44.4824 7.75456 44.4824 9.30371V16.4502H41.5703V9.52539C41.5703 8.68174 41.357 8.00084 40.9443 7.53223C40.5328 7.06501 39.9148 6.79888 39.0859 6.79883C38.3683 6.79883 37.739 7.04439 37.2891 7.53809C36.8387 8.03233 36.5605 8.78346 36.5605 9.80664V16.4502H33.6689V9.44434C33.6689 8.61073 33.4604 7.95084 33.0605 7.5C32.6617 7.05043 32.0639 6.79883 31.2646 6.79883C30.517 6.79883 29.8734 7.05453 29.416 7.56055C28.958 8.06732 28.6797 8.83367 28.6797 9.86719V16.4502H25.8281V4.55078H28.6592V5.79102C29.4189 4.8783 30.5565 4.30957 31.9482 4.30957C33.7732 4.30957 35.045 5.02824 35.7725 6.28125C36.5964 5.08657 37.9584 4.30957 39.6289 4.30957Z" fill="#191F28" stroke="#191F28" stroke-width="0.137606"/>
<defs>
<linearGradient id="paint0_linear_2392_80" x1="5.25003" y1="3.42386" x2="19.6305" y2="10.2717" gradientUnits="userSpaceOnUse">
<stop stop-color="#1C8AFF"/>
<stop offset="1" stop-color="#055FFE"/>
</linearGradient>
<linearGradient id="paint1_linear_2392_80" x1="5.25003" y1="3.42386" x2="19.6305" y2="10.2717" gradientUnits="userSpaceOnUse">
<stop stop-color="#1C8AFF"/>
<stop offset="1" stop-color="#055FFE"/>
</linearGradient>
<linearGradient id="paint2_linear_2392_80" x1="5.25003" y1="3.42386" x2="19.6305" y2="10.2717" gradientUnits="userSpaceOnUse">
<stop stop-color="#1C8AFF"/>
<stop offset="1" stop-color="#055FFE"/>
</linearGradient>
<linearGradient id="paint3_linear_2392_80" x1="13.0112" y1="5.93477" x2="19.6307" y2="10.9565" gradientUnits="userSpaceOnUse">
<stop stop-color="#000C21"/>
<stop offset="1" stop-color="#000C21" stop-opacity="0"/>
</linearGradient>
<linearGradient id="paint4_linear_2392_80" x1="15.75" y1="17.576" x2="1.36954" y2="10.7282" gradientUnits="userSpaceOnUse">
<stop stop-color="#1C8AFF"/>
<stop offset="1" stop-color="#055FFE"/>
</linearGradient>
<linearGradient id="paint5_linear_2392_80" x1="15.75" y1="17.576" x2="1.36954" y2="10.7282" gradientUnits="userSpaceOnUse">
<stop stop-color="#1C8AFF"/>
<stop offset="1" stop-color="#055FFE"/>
</linearGradient>
<linearGradient id="paint6_linear_2392_80" x1="21.228" y1="16.8913" x2="27.8475" y2="21.9131" gradientUnits="userSpaceOnUse">
<stop stop-color="#000C21"/>
<stop offset="1" stop-color="#000C21" stop-opacity="0"/>
</linearGradient>
<clipPath id="clip0_2392_80">
<rect width="21" height="21" fill="white"/>
</clipPath>
</defs>
</svg>
