<svg width="20" height="20" viewBox="0 0 20 20" fill="none" xmlns="http://www.w3.org/2000/svg">
<path d="M8.60273 0.635715C9.06633 -0.211951 10.2838 -0.211953 10.7474 0.635713L13.3924 5.47189C13.5045 5.67696 13.6731 5.84558 13.8782 5.95774L18.7144 8.60273C19.562 9.06633 19.562 10.2838 18.7144 10.7474L13.8782 13.3924C13.6731 13.5045 13.5045 13.6731 13.3924 13.8782L10.7474 18.7144C10.2838 19.562 9.06633 19.562 8.60273 18.7144L5.95774 13.8782C5.84558 13.6731 5.67696 13.5045 5.47189 13.3924L0.635715 10.7474C-0.211951 10.2838 -0.211953 9.06633 0.635713 8.60273L5.47189 5.95774C5.67696 5.84558 5.84558 5.67696 5.95774 5.47189L8.60273 0.635715Z" fill="#FFC84D"/>
</svg>
